# xmcd CD database file
#
# Track frame offsets:
#	150
#	25822
#	44235
#
# Disc length: 930 seconds
#
# Revision: 0
# Processed by: cddbd v1.5PL3 Copyright (c) Steve Scherf et al.
# Submitted via: CDex 1.50beta9
#
DISCID=2303a003
DTITLE=楠瀬誠士郎 - 星が見えた夜
DYEAR=1992
DGENRE=J-POP
TTITLE0=星が見えた夜
TTITLE1=Ｉ ＬＯＶＥ ＹＯＵをもう一度
TTITLE2=星が見えた夜　カラオケ
EXTD=YEAR: 1992
EXTT0=
EXTT1=
EXTT2=
PLAYORDER=
